name processed_emg_signals
nRows=75
nColumns=7
 
endheader
time	LGLTMED	LRF	LADDLONG	LBF	LTA	LGM
15.78	0.0006072094902963	0.0231513282510619	0.0002442653708687	0.0002952337485075	0.2477732056661753	0.0005255756290308
15.79	0.0004207250080907	0.0219826828465396	0.0003659491144205	3.251674682701996e-05	0.2625525670558664	0.0005515910079765
15.799999999999999	0.0002343483865151	0.0208249156096304	0.0004873858950896	0.0002278287837626	0.2773363379746646	0.000577637041022
15.809999999999999	4.819489965348871e-05	0.019678693648993	0.0006084999950054	0.0004856370080018	0.2921146525179054	0.0006036969086413
15.819999999999999	0.0001376197931045	0.018544668531553	0.0007292161360004	0.0007407455327124	0.3068776611317503	0.0006297538230009
15.829999999999998	0.0003229797743565	0.0174234753826098	0.0008494595964406	0.0009929956725638	0.3216155479895741	0.0006557910589194
15.839999999999998	0.000507768996454	0.0163157320218218	0.0009691563268805	0.0012422327091276	0.3363185483632017	0.0006817919847804
15.849999999999998	0.0006918714095778	0.0152220381370462	0.0010882330641919	0.0014883061424703	0.3509769659295835	0.0007077400932863
15.859999999999998	0.0008751710899616	0.0141429744977939	0.0012066174438513	0.0017310699345523	0.365581189954299	0.0007336190319402
15.869999999999997	0.0010575523681076	0.0130791022098721	0.0013242381100959	0.0019703827437256	0.3801217122952524	0.0007594126331487
15.879999999999997	0.0012388999568419	0.0120309620126328	0.0014410248236925	0.0022061081496536	0.3945891441736015	0.0007851049438422
15.889999999999997	0.0014190990790569	0.010999073620095	0.0015569085670865	0.0024381148680131	0.4089742326638665	0.0008106802545203
15.899999999999997	0.0015980355949948	0.0099839351070473	0.0016718216467166	0.0026662769543612	0.4232678768602104	0.0008361231276361
15.909999999999997	0.0017755961289255	0.0089860223410662	0.001785697792288	0.0028904739965788	0.4374611436801705	0.0008614184252454
15.919999999999996	0.0019516681950812	0.0080057884612237	0.0018984722528079	0.0031105912953235	0.4515452832703286	0.0008865513358507
15.929999999999996	0.002126140322717	0.007043663404111	0.0020100818891945	0.0033265200319602	0.4655117439808413	0.0009115074003777
15.939999999999996	0.0022989021801691	0.0061000534776689	0.0021204652632888	0.0035381574234681	0.4793521868777167	0.0009362725372235
15.949999999999996	0.0024698446977924	0.0051753409831444	0.0022295627231084	0.0037454068638517	0.4930584997631433	0.000960833066319
15.959999999999996	0.0026388601896656	0.0042698838852808	0.0023373164842027	0.0039481780516161	0.5066228106747636	0.0009851757321458
15.969999999999995	0.0028058424739588	0.0033840155306099	0.0024436707069809	0.0041463871029059	0.5200375008346475	0.0010092877256518
15.979999999999995	0.0029706869918638	0.0025180444135048	0.0025485715698916	0.0043399566499733	0.5332952170181363	0.0010331567050071
15.989999999999995	0.0031332909249921	0.0016722539895113	0.0026519673383412	0.0045288159247332	0.5463888833118166	0.0010567708151466
15.999999999999995	0.0032935533111383	0.0008469025353945	0.0027538084292499	0.0047129008272856	0.5593117122286428	0.0010801187060465
16.009999999999994	0.0034513751583123	4.222305527932121e-05	0.0028540474711634	0.0048921539793958	0.5720572151468702	0.0011031895496838
16.019999999999992	0.0036066595569353	0.0007415767678024	0.0029526393598587	0.00506652476302	0.5846192120387087	0.0011259730556278
16.029999999999994	0.003759311790098	0.001504314575725	0.0030495413093991	0.0052359693440305	0.5969918404555182	0.0011484594852171
16.039999999999992	0.0039092394417682	0.0022458332952972	0.0031447128985985	0.005400450681371	0.6091695637394654	0.0011706396642792
16.049999999999994	0.0040563525028308	0.0029660010554446	0.0032381161128587	0.0055599385219356	0.6211471784362099	0.0011925049943591
16.05999999999999	0.0042005634748354	0.0036647110625452	0.0033297153813366	0.0057144093815226	0.6329198208880282	0.0012140474624314
16.069999999999993	0.0043417874713161	0.0043418814349767	0.0034194776094022	0.0058638465122455	0.6444829729909383	0.0012352596490769
16.07999999999999	0.004479942316547	0.0049974549979875	0.0035073722063397	0.0060082398568142	0.6558324671029866	0.00125613473511
16.089999999999993	0.0046149486415845	0.0056313990400586	0.0035933711082504	0.0061475859901264	0.6669644900943832	0.0012766665066521
16.09999999999999	0.004746729977442	0.006243705031964	0.0036774487961213	0.0062818880486472	0.6778755865337653	0.0012968493586446
16.109999999999992	0.0048752128452298	0.006834388309765	0.003759582309035	0.0064111556480806	0.6885626610081956	0.0013166782968089
16.11999999999999	0.0050003268430854	0.0074034877229823	0.0038397512525164	0.0065354047898562	0.6990229795771262	0.0013361489380552
16.129999999999992	0.0051220047297096	0.0079510652492143	0.0039179378020265	0.0066546577569532	0.7092541703624683	0.0013552575093558
16.13999999999999	0.0052401825043178	0.008477205576506	0.0039941267016277	0.0067689429995913	0.7192542232787486	0.0013740008450984
16.14999999999999	0.0053547994828209	0.0089820156548343	0.0040683052578473	0.0068782950113116	0.7290214889098987	0.0013923763829435
16.15999999999999	0.0054657983700491	0.0094656242181291	0.0041404633287795	0.0069827541959779	0.7385546765425957	0.0014103821582186
16.16999999999999	0.0055731253278414	0.0099281812782897	0.0042105933084693	0.0070823667262303	0.7478528513694522	0.001428016796888
16.17999999999999	0.0056767300388254	0.0103698575926797	0.0042786901066517	0.0071771843939259	0.7569154308778597	0.0014452795071388
16.18999999999999	0.0057765657657093	0.0107908441065916	0.0043447511239423	0.0072672644530997	0.7657421804417925	0.0014621700696296
16.19999999999999	0.0058725894059043	0.0111913513721771	0.0044087762226079	0.0073526694559741	0.7743332081350678	0.0014786888264449
16.20999999999999	0.0059647615412995	0.0115716089453464	0.0044707676930665	0.0074334670825306	0.782688958786067	0.0014948366688046
16.219999999999988	0.0060530464830172	0.0119318647621365	0.0045307302162737	0.0075097299641485	0.7908102072956962	0.0015106150235754
16.22999999999999	0.0061374123109956	0.0122723844960424	0.0045886708221539	0.0075815355017997	0.79869805124187	0.0015260258386343
16.239999999999988	0.0062178309082645	0.0125934508977827	0.0046445988442324	0.0076489656792773	0.8063539027947779	0.0015410715671328
16.24999999999999	0.0062942779897976	0.0128953631189498	0.0046985258706222	0.0077121068719135	0.8137794799683182	0.0015557551507115
16.259999999999987	0.0063667331258373	0.0131784360209608	0.0047504656915276	0.0077710496512233	0.820976797235158	0.0015700800017156
16.26999999999999	0.0064351797596147	0.0134429994707066	0.0048004342434313	0.0078258885858909	0.8279481555357205	0.0015840499844664
16.279999999999987	0.0064996052194179	0.0136893976242696	0.0048484495501352	0.0078767220394969	0.834696131713975	0.0015976693956466
16.28999999999999	0.0065600007250019	0.0139179882000642	0.0048945316608236	0.0079236519653847	0.8412235674145934	0.0016109429438583
16.299999999999986	0.006616361388367	0.0141291417427399	0.0049387025853129	0.0079667836990574	0.8475335574769051	0.0016238757284149
16.309999999999988	0.0066686862089467	0.0143232408791755	0.004980986226654	0.0080062257484954	0.8536294378614511	0.0016364732174283
16.319999999999986	0.0067169780632574	0.0145006795678896	0.0050214083112524	0.0080420895827846	0.859514773145047	0.0016487412252566
16.329999999999988	0.0067612436890625	0.0146618623431776	0.0050599963166783	0.0080744894194274	0.8651933436204285	0.0016606858893723
16.339999999999986	0.0068014936641065	0.0148072035552709	0.0050967793973365	0.0081035420106962	0.870669132036825	0.0016723136467198
16.349999999999987	0.0068377423794748	0.0149371266077793	0.0051317883081708	0.0081293664293637	0.8759463100183013	0.0016836312096234
16.359999999999985	0.0068700080076458	0.015052063193646	0.0051650553265747	0.0081520838541241	0.881029224197617	0.0016946455413139
16.369999999999987	0.0068983124653252	0.0151524525308068	0.0051966141726834	0.0081718173549959	0.885922382105052	0.0017053638311425
16.379999999999985	0.0069226813711802	0.0152387405987309	0.005226499928228	0.0081886916789792	0.8906304378539601	0.001715793469555
16.389999999999986	0.0069431439986197	0.0153113793770028	0.0052547489541313	0.0082028330362262	0.895158177667017	0.0017259420229023
16.399999999999984	0.0069597332237828	0.0153708260870982	0.0052813988070255	0.0082143688869708	0.8995105052882452	0.0017358172081643
16.409999999999986	0.006972485468926	0.0154175424384825	0.0053064881548711	0.0082234277294596	0.903692427325732	0.0017454268676616
16.419999999999984	0.0069814406414137	0.0154519938801312	0.0053300566918567	0.0082301388891206	0.9077090385689356	0.0017547789438306
16.429999999999986	0.0069866420685272	0.0154746488585405	0.0053521450527621	0.008234632309213	0.9115655073231684	0.00176388145413
16.439999999999984	0.0069881364283021	0.0154859780832713	0.0053727947269769	0.0082370383431975	0.9152670608025292	0.0017727424661515
16.449999999999985	0.0069859736765952	0.0154864538010482	0.00539204797237	0.0082374875490557	0.918818970621252	0.0017813700730001
16.459999999999983	0.0069802069705747	0.0154765490794304	0.0054099477292134	0.0082361104857759	0.9222265384218457	0.0017897723690094
16.469999999999985	0.0069708925888209	0.0154567371010625	0.0054265375343555	0.0082330375121966	0.9254950816762934	0.0017979574258553
16.479999999999983	0.0069580898482142	0.0154274904695064	0.0054418614358326	0.0082283985883844	0.9286299196941954	0.0018059332691239
16.489999999999984	0.0069418610177776	0.0153892805276269	0.0054559639080932	0.0082223230797089	0.931636359869179	0.0018137078553864
16.499999999999982	0.0069222712296311	0.0153425766894708	0.0054688897679974	0.0082149395637611	0.9345196841923938	0.0018212890498305
16.509999999999984	0.0068993883872028	0.0152878457865371	0.0054806840917365	0.0082063756402612	0.9372851360591696	0.0018286846044878
16.519999999999982	0.0068732830708386	0.0152255514292954	0.0054913921328127	0.0081967577441007	0.9399379073920372	0.0018359021370997
